# xmcd
#
# Track frame offsets:
# 150
# 19156
# 29498
# 38035
# 44082
# 49013
# 60440
# 89293
# 100205
#
# Disc length: 1560 seconds
#
# Revision: 0
# Processed by: cddbd v1.5.1PL0 Copyright (c) Steve Scherf et al.
# Submitted via: Audion 3.0.2 (http://www.panic.com/audion/)
#
DISCID=70061609
DTITLE=The Water Giant - The Water Giant
DYEAR=1900
DGENRE=
TTITLE0=The Water Giant
TTITLE1=The Water Giant
TTITLE2=The Water Giant
TTITLE3=The Water Giant
TTITLE4=The Water Giant
TTITLE5=The Water Giant
TTITLE6=The Water Giant
TTITLE7=The Water Giant
TTITLE8=The Water Giant
EXTD=
EXTT0=
EXTT1=
EXTT2=
EXTT3=
EXTT4=
EXTT5=
EXTT6=
EXTT7=
EXTT8=
PLAYORDER=
